<svg id="Layer_2" data-name="Layer 2" xmlns="http://www.w3.org/2000/svg" viewBox="0 0 1919.68 2591.82">
    <title>exp_w_nmn2</title>
    <defs>
        <!--get the texts to use the included fonts-->
        <style type="text/css">
            @font-face{
                font-family: "Roboto";
                src: url("../fonts/Roboto-Light.ttf");
            }
            @font-face{
                font-family: "Myriad Pro";
                src: url("../fonts/MyriadPro-Bold.otf");
            }
        </style>
    </defs>
    <path d="M1708-.82h212Q1920,1295,1920,2591H0.32V-0.82H352c3.44,1.93,7.19,1,10.78,1Q1030,0.24,1697.23.16C1700.82,0.16,1704.57,1.11,1708-.82Z"
          transform="translate(-0.32 0.82)" fill="#282727"/>
    <path d="M1710,2c-1.46,1.62-3.38,2-5.44,2l-8,0Q1032,4,367.43,3.93C362.94,3.93,358,5.54,354,2H1710Z"
          transform="translate(-0.32 0.82)" fill="#2d2b2b"/>
    <polygon points="932.45 164.7 867 99.25 932.45 99.25 932.45 164.7" fill="#ffc413" stroke="#282727"
             stroke-miterlimit="10" stroke-width="7"/>
    <polygon points="867 99.25 932.45 164.7 867 164.7 867 99.25" fill="#dd3527" stroke="#282727" stroke-miterlimit="10"
             stroke-width="7"/>
    <polygon points="1059.93 164.7 994.48 99.25 1059.93 99.25 1059.93 164.7" fill="#ffc413" stroke="#282727"
             stroke-miterlimit="10" stroke-width="7"/>
    <polygon points="994.48 99.25 1059.93 164.7 994.48 164.7 994.48 99.25" fill="#dd3527" stroke="#282727"
             stroke-miterlimit="10" stroke-width="7"/>
    <polygon points="932.45 230.04 867 164.58 932.45 164.58 932.45 230.04" fill="#dd3527" stroke="#282727"
             stroke-miterlimit="10" stroke-width="7"/>
    <polygon points="867 164.58 932.45 230.04 867 230.04 867 164.58" fill="#ffc413" stroke="#282727"
             stroke-miterlimit="10" stroke-width="7"/>
    <polygon points="932.45 293.99 867 228.53 932.45 228.53 932.45 293.99" fill="#ffc413" stroke="#282727"
             stroke-miterlimit="10" stroke-width="7"/>
    <polygon points="867 228.53 932.45 293.99 867 293.99 867 228.53" fill="#dd3527" stroke="#282727"
             stroke-miterlimit="10" stroke-width="7"/>
    <polygon points="932.45 359.32 867 293.87 932.45 293.87 932.45 359.32" fill="#dd3527" stroke="#282727"
             stroke-miterlimit="10" stroke-width="7"/>
    <polygon points="867 293.87 932.45 359.32 867 359.32 867 293.87" fill="#ffc413" stroke="#282727"
             stroke-miterlimit="10" stroke-width="7"/>
    <polygon points="995.74 359.32 930.29 293.87 995.74 293.87 995.74 359.32" fill="#ffc413" stroke="#282727"
             stroke-miterlimit="10" stroke-width="7"/>
    <polygon points="930.29 293.87 995.74 359.32 930.29 359.32 930.29 293.87" fill="#dd3527" stroke="#282727"
             stroke-miterlimit="10" stroke-width="7"/>
    <polygon points="1059.93 359.32 994.48 293.87 1059.93 293.87 1059.93 359.32" fill="#dd3527" stroke="#282727"
             stroke-miterlimit="10" stroke-width="7"/>
    <polygon points="994.48 293.87 1059.93 359.32 994.48 359.32 994.48 293.87" fill="#ffc413" stroke="#282727"
             stroke-miterlimit="10" stroke-width="7"/>
    <polygon points="1059.93 293.99 994.48 228.53 1059.93 228.53 1059.93 293.99" fill="#ffc413" stroke="#282727"
             stroke-miterlimit="10" stroke-width="7"/>
    <polygon points="994.48 228.53 1059.93 293.99 994.48 293.99 994.48 228.53" fill="#dd3527" stroke="#282727"
             stroke-miterlimit="10" stroke-width="7"/>
    <polygon points="994.48 230.15 1059.93 164.7 1059.93 230.15 994.48 230.15" fill="#ffc413" stroke="#282727"
             stroke-miterlimit="10" stroke-width="7"/>
    <text transform="translate(1077.49 263.61)" font-size="83.02" fill="#fff" font-family="Roboto">-IENCE</text>
    <text transform="translate(582.05 259.91)" font-size="83.02" fill="#fff" font-family="Roboto">EXPER</text>
    <line x1="965.74" y1="489.63" x2="965.74" y2="1635.07" fill="none" stroke="#ffc413" stroke-miterlimit="10"
          stroke-width="4" stroke-dasharray="12"/>
    <circle cx="966.45" cy="602.04" r="54.49" fill="#282827" stroke="#ed1c24" stroke-miterlimit="10" stroke-width="2"/>
    <circle cx="966.45" cy="602.04" r="16.69" fill="#ed1c24"/>
    <circle cx="966.45" cy="1529.43" r="54.49" fill="#282827" stroke="#ed1c24" stroke-miterlimit="10" stroke-width="2"/>
    <circle cx="966.45" cy="1529.43" r="16.69" fill="#ed1c24"/>
    <circle cx="966.45" cy="1065.73" r="54.49" fill="#282827" stroke="#ed1c24" stroke-miterlimit="10" stroke-width="2"/>
    <circle cx="966.45" cy="1065.73" r="16.69" fill="#ed1c24"/>
    <line x1="911.95" y1="602.04" x2="602.16" y2="602.04" fill="none" stroke="#ffc413" stroke-miterlimit="10"
          stroke-width="4"/>
    <line x1="911.95" y1="1528.51" x2="602.16" y2="1528.51" fill="none" stroke="#ffc413" stroke-miterlimit="10"
          stroke-width="4"/>
    <line x1="1331.84" y1="1065.36" x2="1022.05" y2="1065.36" fill="none" stroke="#ffc413" stroke-miterlimit="10"
          stroke-width="4"/>
    <text transform="translate(737.7 647.53)" font-size="144.79" fill="#fff" font-family="Myriad Pro" font-weight="700">
        1
    </text>
    <text transform="translate(1132.65 1114.07)" font-size="144.79" fill="#fff" font-family="Myriad Pro"
          font-weight="700">2
    </text>
    <text transform="translate(737.7 1572.39)" font-size="144.79" fill="#fff" font-family="Myriad Pro"
          font-weight="700">3
    </text>
    <polygon points="947.55 2456.46 983.74 2456.46 965.64 2489.03 947.55 2456.46" fill="#ffc413"/>
    <line x1="965.74" y1="1645.93" x2="965.74" y2="1955.61" fill="none" stroke="#ffc413" stroke-miterlimit="10"
          stroke-width="4" stroke-dasharray="12"/>
    <line x1="965.74" y1="1838.6" x2="965.74" y2="2148.29" fill="none" stroke="#ffc413" stroke-miterlimit="10"
          stroke-width="4" stroke-dasharray="12"/>
    <line x1="965.74" y1="2149.4" x2="965.74" y2="2459.08" fill="none" stroke="#ffc413" stroke-miterlimit="10"
          stroke-width="4" stroke-dasharray="12"/>
    <text transform="translate(183.98 611.64)" font-size="23" fill="#ffc413" font-family="Roboto">HEAD PROGRAMMER &amp;
        VIDEO ED
        <tspan x="346.4" y="0">I</tspan>
        <tspan x="352.3" y="0">T</tspan>
        <tspan x="365.61" y="0">OR</tspan>
    </text>
    <text transform="translate(183.98 656.86)" font-size="25" fill="#ed1c24" font-family="Myriad Pro" font-weight="700">
        2013-2016, FIRST
        <tspan x="197.97" y="0">R</tspan>
        <tspan x="212.7" y="0">OB</tspan>
        <tspan x="245.72" y="0">O</tspan>
        <tspan x="262.95" y="0">TICS</tspan>
        <tspan x="312.15" y="0"></tspan>
        <tspan x="316.22" y="0">TEAM 1635</tspan>
    </text>
    <text transform="translate(183.68 696.57)" font-size="22" fill="#fff" font-family="Roboto">•
        <tspan x="7.11" y="0" letter-spacing="23"></tspan>
        <tspan x="36" y="0">D</tspan>
        <tspan x="50.44" y="0">ev</tspan>
        <tspan x="72.25" y="0">eloped a J</tspan>
        <tspan x="171.29" y="0">av</tspan>
        <tspan x="193.56" y="0">a algorithm</tspan>
        <tspan x="308.94" y="0">t</tspan>
        <tspan x="316.03" y="0">o ensu</tspan>
        <tspan x="380.65" y="0">r</tspan>
        <tspan x="387.94" y="0">e the</tspan>
        <tspan x="440.85" y="0">r</tspan>
        <tspan x="448.12" y="0">obot will dri</tspan>
        <tspan x="559.23" y="0">v</tspan>
        <tspan x="569.85" y="0">e</tspan>
        <tspan x="0" y="31">straight</tspan>
        <tspan x="79.98" y="31">ev</tspan>
        <tspan x="101.79" y="31">en if it</tspan>
        <tspan x="160.6" y="31">’</tspan>
        <tspan x="163.65" y="31">s made off-course</tspan>
        <tspan x="344.72" y="31">b</tspan>
        <tspan x="356.84" y="31">y external fo</tspan>
        <tspan x="475.07" y="31">r</tspan>
        <tspan x="482.36" y="31">ces. It is</tspan>
        <tspan x="0" y="62">achi</tspan>
        <tspan x="40.47" y="62">ev</tspan>
        <tspan x="62.28" y="62">ed using an onboa</tspan>
        <tspan x="239.74" y="62">r</tspan>
        <tspan x="247.03" y="62">d gy</tspan>
        <tspan x="287.64" y="62">r</tspan>
        <tspan x="294.92" y="62">oscope. (See the video below)</tspan>
        <tspan x="0" y="93">•</tspan>
        <tspan x="7.11" y="93" letter-spacing="23"></tspan>
        <tspan x="36" y="93" letter-spacing="-1">T</tspan>
        <tspan x="47.82" y="93">aught a g</tspan>
        <tspan x="138.48" y="93">r</tspan>
        <tspan x="145.75" y="93">oup of 20 students basics of computer science.</tspan>
        <tspan x="0" y="124">•</tspan>
        <tspan x="7.11" y="124" letter-spacing="23"></tspan>
        <tspan x="36" y="124">Utili</tspan>
        <tspan x="73.05" y="124">z</tspan>
        <tspan x="83.64" y="124">ed J</tspan>
        <tspan x="124.68" y="124">av</tspan>
        <tspan x="146.95" y="124">a and A</tspan>
        <tspan x="219.53" y="124">r</tspan>
        <tspan x="226.81" y="124">duino</tspan>
        <tspan x="286.14" y="124">t</tspan>
        <tspan x="293.23" y="124">o p</tspan>
        <tspan x="323.07" y="124">r</tspan>
        <tspan x="330.35" y="124">ogram WPILib – based</tspan>
        <tspan x="557.2" y="124">r</tspan>
        <tspan x="564.47" y="124">obots.</tspan>
        <tspan x="0" y="155">The 2016</tspan>
        <tspan x="96.71" y="155">r</tspan>
        <tspan x="103.98" y="155">obot ran</tspan>
        <tspan x="184.94" y="155">k</tspan>
        <tspan x="195.53" y="155">ed #5 in</tspan>
        <tspan x="278.23" y="155">N</tspan>
        <tspan x="293.55" y="155">Y</tspan>
        <tspan x="306.6" y="155">C Regional Competition.</tspan>
        <tspan x="0" y="186">•</tspan>
        <tspan x="7.11" y="186" letter-spacing="23"></tspan>
        <tspan x="36" y="186">Studied and practiced p</tspan>
        <tspan x="264.44" y="186">r</tspan>
        <tspan x="271.72" y="186">ogramming techniques including</tspan>
        <tspan x="594.25" y="186">v</tspan>
        <tspan x="604.85" y="186">ari</tspan>
        <tspan x="629.16" y="186">-</tspan>
        <tspan x="0" y="217">ables, functions, loops, classes and basic algorithms.</tspan>
        <tspan x="0" y="248">•</tspan>
        <tspan x="7.11" y="248" letter-spacing="23"></tspan>
        <tspan x="36" y="248">Filmed and p</tspan>
        <tspan x="161.02" y="248">r</tspan>
        <tspan x="168.29" y="248">oduced p</tspan>
        <tspan x="257.6" y="248">r</tspan>
        <tspan x="264.87" y="248">o</tspan>
        <tspan x="277.12" y="248">f</tspan>
        <tspan x="284.09" y="248">essional videos documenting the</tspan>
        <tspan x="0" y="279">building season and the competitions,</tspan>
        <tspan x="371.46" y="279">r</tspan>
        <tspan x="378.75" y="279">eceiving mo</tspan>
        <tspan x="495.16" y="279">r</tspan>
        <tspan x="502.44" y="279">e than 20,000</tspan>
        <tspan x="0" y="310">views. D</tspan>
        <tspan x="79.99" y="310">ev</tspan>
        <tspan x="101.8" y="310">eloped maste</tspan>
        <tspan x="232.72" y="310">r</tspan>
        <tspan x="240.4" y="310">y of video editing softwa</tspan>
        <tspan x="475.46" y="310">r</tspan>
        <tspan x="482.74" y="310">e including</tspan>
        <tspan x="0" y="341">Adobe P</tspan>
        <tspan x="80.77" y="341">r</tspan>
        <tspan x="88.05" y="341">emie</tspan>
        <tspan x="135.21" y="341">r</tspan>
        <tspan x="142.5" y="341">e P</tspan>
        <tspan x="172.79" y="341">r</tspan>
        <tspan x="180.06" y="341">o, Adobe After</tspan>
        <tspan x="321.47" y="341">E</tspan>
        <tspan x="333.95" y="341">f</tspan>
        <tspan x="341.18" y="341">f</tspan>
        <tspan x="348.15" y="341">ects as well as Adobe</tspan>
        <tspan x="561.99" y="341">A</tspan>
        <tspan x="575.61" y="341">udi</tspan>
        <tspan x="605.1" y="341">-</tspan>
        <tspan x="0" y="372">tion.</tspan>
        <tspan x="0" y="403">•</tspan>
        <tspan x="7.11" y="403" letter-spacing="23"></tspan>
        <tspan x="36" y="403">D</tspan>
        <tspan x="50.44" y="403">ev</tspan>
        <tspan x="72.25" y="403">eloped st</tspan>
        <tspan x="160.51" y="403">r</tspan>
        <tspan x="167.79" y="403">ong leadership, communication and time man</tspan>
        <tspan x="610.57" y="403">-</tspan>
        <tspan x="0" y="434">agement skills dealing with</tspan>
        <tspan x="266.49" y="434">v</tspan>
        <tspan x="277.09" y="434">arious challenges in the 6-week de</tspan>
        <tspan x="608" y="434">-</tspan>
        <tspan x="0" y="465">signing p</tspan>
        <tspan x="87.8" y="465">r</tspan>
        <tspan x="95.07" y="465">ocess.</tspan>
        <tspan x="0" y="496">•</tspan>
        <tspan x="7.11" y="496" letter-spacing="23"></tspan>
        <tspan x="36" y="496">Winner of the MVP</tspan>
        <tspan x="222.01" y="496">A</tspan>
        <tspan x="235.4" y="496">wa</tspan>
        <tspan x="263.87" y="496">r</tspan>
        <tspan x="271.16" y="496">d sponso</tspan>
        <tspan x="360.15" y="496">r</tspan>
        <tspan x="367.43" y="496">ed</tspan>
        <tspan x="396.36" y="496">b</tspan>
        <tspan x="408.49" y="496">y FIRS</tspan>
        <tspan x="470.94" y="496" letter-spacing="-2">T</tspan>
        <tspan x="481.63" y="496">.</tspan>
    </text>
    <text transform="translate(183.98 1537.63)" font-size="23" fill="#ffc413" font-family="Roboto">GRAPHIC DESIGNER
        &amp; WEB DESIGNER
    </text>
    <text transform="translate(183.98 1582.86)" font-size="25" fill="#ed1c24" font-family="Myriad Pro"
          font-weight="700">2017-PRESEN
        <tspan x="150.35" y="0" letter-spacing="-2">T</tspan>
        <tspan x="161.97" y="0">, RENSSE</tspan>
        <tspan x="259.3" y="0">L</tspan>
        <tspan x="272.22" y="0">AER UNION</tspan>
    </text>
    <text transform="translate(183.68 1622.57)" font-size="22" fill="#fff" font-family="Roboto">•
        <tspan x="7.11" y="0" letter-spacing="23"></tspan>
        <tspan x="36" y="0">Apply graphic design skills in c</tspan>
        <tspan x="330.31" y="0">r</tspan>
        <tspan x="337.6" y="0">eating logos, posters, b</tspan>
        <tspan x="560.25" y="0">r</tspan>
        <tspan x="567.52" y="0">o</tspan>
        <tspan x="579.77" y="0">-</tspan>
        <tspan x="0" y="31">chu</tspan>
        <tspan x="35.89" y="31">r</tspan>
        <tspan x="43.17" y="31">es, and other designs using Adobe Illustra</tspan>
        <tspan x="445.21" y="31">t</tspan>
        <tspan x="452.3" y="31">o</tspan>
        <tspan x="464.55" y="31" letter-spacing="-1">r</tspan>
        <tspan x="470.71" y="31">, Adobe InDesign</tspan>
        <tspan x="0" y="62">and Adobe Pho</tspan>
        <tspan x="146.93" y="62">t</tspan>
        <tspan x="154.02" y="62">oshop.</tspan>
        <tspan x="0" y="93">•</tspan>
        <tspan x="7.11" y="93" letter-spacing="23"></tspan>
        <tspan x="36" y="93">Maintain RPI Union</tspan>
        <tspan x="227.09" y="93">W</tspan>
        <tspan x="246.46" y="93">ebsites using Drupal.</tspan>
    </text>
    <text transform="translate(1346.1 1078.64)" font-size="23" fill="#ffc413" font-family="Roboto">ELE
        <tspan x="38.62" y="0">C</tspan>
        <tspan x="53.04" y="0">TRONIC</tspan>
        <tspan x="140.17" y="0">M</tspan>
        <tspan x="160.3" y="0">ANU</tspan>
        <tspan x="206.43" y="0">F</tspan>
        <tspan x="219.03" y="0">A</tspan>
        <tspan x="233.27" y="0">C</tspan>
        <tspan x="247.69" y="0">TURING &amp;</tspan>
        <tspan x="161.16" y="27.6">A</tspan>
        <tspan x="175.33" y="27.6">U</tspan>
        <tspan x="190.76" y="27.6">T</tspan>
        <tspan x="204.07" y="27.6">OCAD I</tspan>
        <tspan x="275.56" y="27.6">N</tspan>
        <tspan x="291.57" y="27.6">TERN</tspan>
    </text>
    <text transform="translate(1298.72 1153.86)" font-size="25" fill="#ed1c24" font-family="Myriad Pro"
          font-weight="700">2016, Q
        <tspan x="84.97" y="0">U</tspan>
        <tspan x="101.27" y="0">AD</tspan>
        <tspan x="135.07" y="0">L</tspan>
        <tspan x="146.9" y="0">OGICS</tspan>
        <tspan x="222.42" y="0">C</tspan>
        <tspan x="236.55" y="0">ONT</tspan>
        <tspan x="285.42" y="0">R</tspan>
        <tspan x="300.15" y="0">OL</tspan>
        <tspan x="335.9" y="0">C</tspan>
        <tspan x="350.02" y="0">ORP</tspan>
    </text>
    <text transform="translate(1293.5 1198.57)" font-size="22" fill="#fff" font-family="Roboto">
        <tspan style="white-space:pre">• Drafted 10+</tspan>
        <tspan x="143.16" y="0">A</tspan>
        <tspan x="156.78" y="0">u</tspan>
        <tspan x="169.03" y="0">t</tspan>
        <tspan x="176.12" y="0">oCAD schematics</tspan>
        <tspan x="0" y="31">of complex electrical p</tspan>
        <tspan x="217.31" y="31">r</tspan>
        <tspan x="224.59" y="31">oducts</tspan>
        <tspan x="296.58" y="31">t</tspan>
        <tspan x="303.67" y="31">o enable</tspan>
        <tspan x="0" y="62">smooth p</tspan>
        <tspan x="92.34" y="62">r</tspan>
        <tspan x="99.61" y="62">oduction of elect</tspan>
        <tspan x="261.08" y="62">r</tspan>
        <tspan x="268.35" y="62">onics.</tspan>
        <tspan x="0" y="93" style="white-space:pre">•</tspan>
        <tspan x="23.16" y="93">V</tspan>
        <tspan x="36.25" y="93">erified 200+ se</tspan>
        <tspan x="178.96" y="93">r</tspan>
        <tspan x="186.65" y="93">vice statuses of ele</tspan>
        <tspan x="383.35" y="93">-</tspan>
        <tspan x="0" y="124">trical p</tspan>
        <tspan x="65.6" y="124">r</tspan>
        <tspan x="72.88" y="124">oducts using</tspan>
        <tspan x="203.17" y="124" letter-spacing="-1">T</tspan>
        <tspan x="215.13" y="124">era</tspan>
        <tspan x="245.78" y="124" letter-spacing="-1">T</tspan>
        <tspan x="257.75" y="124">erm in o</tspan>
        <tspan x="336.25" y="124">r</tspan>
        <tspan x="343.54" y="124">der</tspan>
        <tspan x="379.95" y="124">t</tspan>
        <tspan x="387.04" y="124">o</tspan>
        <tspan x="0" y="155">inc</tspan>
        <tspan x="28.64" y="155">r</tspan>
        <tspan x="35.92" y="155">ease the satisfactionrating of the</tspan>
        <tspan x="0" y="186">compan</tspan>
        <tspan x="79.46" y="186" letter-spacing="-1">y</tspan>
        <tspan x="89.07" y="186">.</tspan>
        <tspan x="0" y="217" style="white-space:pre">• Assisted with elect</tspan>
        <tspan x="204.65" y="217">r</tspan>
        <tspan x="211.92" y="217">onic manufacturing</tspan>
        <tspan x="0" y="248">p</tspan>
        <tspan x="12.25" y="248">r</tspan>
        <tspan x="19.52" y="248">ocesses such as soldering.</tspan>
    </text>
    <circle cx="966.45" cy="1993.12" r="54.49" fill="#282827" stroke="#ed1c24" stroke-miterlimit="10" stroke-width="2"/>
    <circle cx="966.45" cy="1993.12" r="16.69" fill="#ed1c24"/>
    <line x1="1331.84" y1="1992.45" x2="1022.05" y2="1992.45" fill="none" stroke="#ffc413" stroke-miterlimit="10"
          stroke-width="4"/>
    <text transform="translate(1132.65 2041.16)" font-size="144.79" fill="#fff" font-family="Myriad Pro"
          font-weight="700">4
    </text>
    <text transform="translate(1360.77 2001.73)" font-size="23" fill="#ffc413" font-family="Roboto">BILING
        <tspan x="70.88" y="0">U</tspan>
        <tspan x="86.06" y="0">AL CUS</tspan>
        <tspan x="162.13" y="0">T</tspan>
        <tspan x="175.44" y="0">OMER SE</tspan>
        <tspan x="271.91" y="0">R</tspan>
        <tspan x="286.84" y="0">VICE</tspan>
        <tspan x="148.22" y="27.6">REPRESE</tspan>
        <tspan x="246.31" y="27.6">N</tspan>
        <tspan x="262.31" y="27.6">T</tspan>
        <tspan x="275.05" y="27.6" letter-spacing="-1">A</tspan>
        <tspan x="287.96" y="27.6">TIVE</tspan>
    </text>
    <text transform="translate(1259.79 2076.95)" font-size="25" fill="#ed1c24" font-family="Myriad Pro"
          font-weight="700">2017, N
        <tspan x="84.3" y="0" letter-spacing="-2">A</tspan>
        <tspan x="98.62" y="0">TIONAL ME</tspan>
        <tspan x="223.35" y="0">D</tspan>
        <tspan x="240.05" y="0">T</tspan>
        <tspan x="253.75" y="0">R</tspan>
        <tspan x="268.8" y="0">ANS N</tspan>
        <tspan x="338.25" y="0">E</tspan>
        <tspan x="351.72" y="0">T</tspan>
        <tspan x="366.12" y="0">W</tspan>
        <tspan x="388.12" y="0">ORK</tspan>
    </text>
    <text transform="translate(1260.5 2121.66)" font-size="22" fill="#fff" font-family="Roboto">
        <tspan style="white-space:pre">•</tspan>
        <tspan x="23.16" y="0" letter-spacing="7"></tspan>
        <tspan x="36" y="0">Cus</tspan>
        <tspan x="73.55" y="0">t</tspan>
        <tspan x="80.64" y="0">omer se</tspan>
        <tspan x="159.09" y="0">r</tspan>
        <tspan x="166.78" y="0">vice</tspan>
        <tspan x="210.61" y="0">r</tspan>
        <tspan x="217.9" y="0">ep</tspan>
        <tspan x="241.48" y="0">r</tspan>
        <tspan x="248.76" y="0">esentati</tspan>
        <tspan x="326.31" y="0">v</tspan>
        <tspan x="336.93" y="0">e working</tspan>
        <tspan x="0" y="31">between members, transpo</tspan>
        <tspan x="264.52" y="31">r</tspan>
        <tspan x="272.35" y="31">tation p</tspan>
        <tspan x="345.87" y="31">r</tspan>
        <tspan x="353.14" y="31">o</tspan>
        <tspan x="365.22" y="31">viders,</tspan>
        <tspan x="0" y="62">and health insurances</tspan>
        <tspan x="218.51" y="62">t</tspan>
        <tspan x="225.6" y="62">o schedule trips</tspan>
        <tspan x="384.13" y="62">t</tspan>
        <tspan x="391.22" y="62">o</tspan>
        <tspan x="0" y="93">doc</tspan>
        <tspan x="35.89" y="93">t</tspan>
        <tspan x="42.98" y="93">o</tspan>
        <tspan x="55.23" y="93">r</tspan>
        <tspan x="62.88" y="93">&apos;</tspan>
        <tspan x="65.76" y="93">s visits, using the</tspan>
        <tspan x="236.88" y="93">M</tspan>
        <tspan x="256.13" y="93">XIE softwa</tspan>
        <tspan x="360.06" y="93">r</tspan>
        <tspan x="367.34" y="93">e and</tspan>
        <tspan x="0" y="124">a web app.</tspan>
        <tspan x="0" y="155" style="white-space:pre">•</tspan>
        <tspan x="23.16" y="155" letter-spacing="7"></tspan>
        <tspan x="36" y="155">Assist cus</tspan>
        <tspan x="135.85" y="155">t</tspan>
        <tspan x="142.94" y="155">omers with their inquiries,</tspan>
        <tspan x="396.63" y="155">r</tspan>
        <tspan x="403.91" y="155">e</tspan>
        <tspan x="415.24" y="155">-</tspan>
        <tspan x="0" y="186">sol</tspan>
        <tspan x="28.45" y="186">v</tspan>
        <tspan x="39.07" y="186">e complaints, and settle gri</tspan>
        <tspan x="298.5" y="186">e</tspan>
        <tspan x="309.7" y="186">v</tspan>
        <tspan x="320.3" y="186">ances.</tspan>
        <tspan x="0" y="217" style="white-space:pre">• Gained e</tspan>
        <tspan x="107.54" y="217">x</tspan>
        <tspan x="118.09" y="217">ceptional communications skills</tspan>
        <tspan x="0" y="248">as well as experiences in the se</tspan>
        <tspan x="302.47" y="248">r</tspan>
        <tspan x="310.15" y="248">vice indus</tspan>
        <tspan x="406.92" y="248">-</tspan>
        <tspan x="0" y="279">t</tspan>
        <tspan x="7.3" y="279">r</tspan>
        <tspan x="14.99" y="279" letter-spacing="-1">y</tspan>
        <tspan x="24.6" y="279">.</tspan>
    </text>
</svg>