<svg id="Layer_2" data-name="Layer 2" xmlns="http://www.w3.org/2000/svg" viewBox="0 0 1919.68 2591.82"><defs><style>.cls-1{fill:#282727;}.cls-2{fill:#2d2b2b;}.cls-11,.cls-12,.cls-3{fill:#ffc413;}.cls-3,.cls-4{stroke:#282727;stroke-width:7px;}.cls-3,.cls-4,.cls-6,.cls-7,.cls-9{stroke-miterlimit:10;}.cls-4{fill:#dd3527;}.cls-5{font-size:83.02px;}.cls-10,.cls-14,.cls-5{fill:#fff;}.cls-12,.cls-14,.cls-5{font-family:Roboto;}.cls-6,.cls-9{fill:none;stroke:#ffc413;stroke-width:4px;}.cls-6{stroke-dasharray:12;}.cls-7{fill:#282827;stroke:#ed1c24;stroke-width:2px;}.cls-13,.cls-8{fill:#ed1c24;}.cls-10{font-size:144.79px;}.cls-10,.cls-13{font-family:Myriad Pro;font-weight:700;}.cls-12{font-size:23px;}.cls-13{font-size:25px;}.cls-14{font-size:22px;}.cls-15{letter-spacing:23px;}.cls-16{letter-spacing:-1px;}.cls-17{letter-spacing:-2px;}.cls-18{letter-spacing:300px;}</style></defs><title>ExperienceBg_Vector</title><path class="cls-1" d="M1708-.82h212Q1920,1295,1920,2591H0.32V-0.82H352c3.44,1.93,7.19,1,10.78,1Q1030,0.24,1697.23.16C1700.82,0.16,1704.57,1.11,1708-.82Z" transform="translate(-0.32 0.82)"/><path class="cls-2" d="M1710,2c-1.46,1.62-3.38,2-5.44,2l-8,0Q1032,4,367.43,3.93C362.94,3.93,358,5.54,354,2H1710Z" transform="translate(-0.32 0.82)"/><polygon class="cls-3" points="932.45 164.7 867 99.25 932.45 99.25 932.45 164.7"/><polygon class="cls-4" points="867 99.25 932.45 164.7 867 164.7 867 99.25"/><polygon class="cls-3" points="1059.93 164.7 994.48 99.25 1059.93 99.25 1059.93 164.7"/><polygon class="cls-4" points="994.48 99.25 1059.93 164.7 994.48 164.7 994.48 99.25"/><polygon class="cls-4" points="932.45 230.04 867 164.58 932.45 164.58 932.45 230.04"/><polygon class="cls-3" points="867 164.58 932.45 230.04 867 230.04 867 164.58"/><polygon class="cls-3" points="932.45 293.99 867 228.53 932.45 228.53 932.45 293.99"/><polygon class="cls-4" points="867 228.53 932.45 293.99 867 293.99 867 228.53"/><polygon class="cls-4" points="932.45 359.32 867 293.87 932.45 293.87 932.45 359.32"/><polygon class="cls-3" points="867 293.87 932.45 359.32 867 359.32 867 293.87"/><polygon class="cls-3" points="995.74 359.32 930.29 293.87 995.74 293.87 995.74 359.32"/><polygon class="cls-4" points="930.29 293.87 995.74 359.32 930.29 359.32 930.29 293.87"/><polygon class="cls-4" points="1059.93 359.32 994.48 293.87 1059.93 293.87 1059.93 359.32"/><polygon class="cls-3" points="994.48 293.87 1059.93 359.32 994.48 359.32 994.48 293.87"/><polygon class="cls-3" points="1059.93 293.99 994.48 228.53 1059.93 228.53 1059.93 293.99"/><polygon class="cls-4" points="994.48 228.53 1059.93 293.99 994.48 293.99 994.48 228.53"/><polygon class="cls-3" points="994.48 230.15 1059.93 164.7 1059.93 230.15 994.48 230.15"/><text class="cls-5" transform="translate(1077.49 263.61)">-IENCE</text><text class="cls-5" transform="translate(582.05 259.91)">EXPER</text><line class="cls-6" x1="965.74" y1="489.63" x2="965.74" y2="1635.07"/><circle class="cls-7" cx="966.45" cy="602.04" r="54.49"/><circle class="cls-8" cx="966.45" cy="602.04" r="16.69"/><circle class="cls-7" cx="966.45" cy="1530.02" r="54.49"/><circle class="cls-8" cx="966.45" cy="1530.02" r="16.69"/><circle class="cls-7" cx="966.45" cy="1066.03" r="54.49"/><circle class="cls-8" cx="966.45" cy="1066.03" r="16.69"/><line class="cls-9" x1="911.95" y1="602.04" x2="602.16" y2="602.04"/><line class="cls-9" x1="911.95" y1="1533.51" x2="602.16" y2="1533.51"/><line class="cls-9" x1="1331.84" y1="1065.36" x2="1022.05" y2="1065.36"/><text class="cls-10" transform="translate(737.7 647.53)">1</text><text class="cls-10" transform="translate(1132.65 1114.07)">2</text><text class="cls-10" transform="translate(737.7 1577.39)">3</text><polygon class="cls-11" points="947.55 1951.99 983.74 1951.99 965.64 1984.57 947.55 1951.99"/><line class="cls-6" x1="965.74" y1="1645.93" x2="965.74" y2="1955.61"/><text class="cls-12" transform="translate(183.98 611.64)">HEAD PROGRAMMER &amp; VIDEO ED<tspan x="346.4" y="0">I</tspan><tspan x="352.3" y="0">T</tspan><tspan x="365.61" y="0">OR</tspan></text><text class="cls-13" transform="translate(183.98 656.86)">2013-2016, FIRST <tspan x="197.97" y="0">R</tspan><tspan x="212.7" y="0">OB</tspan><tspan x="245.72" y="0">O</tspan><tspan x="262.95" y="0">TICS</tspan><tspan x="312.15" y="0"> </tspan><tspan x="316.22" y="0">TEAM 1635</tspan></text><text class="cls-14" transform="translate(183.68 696.57)">•<tspan class="cls-15" x="7.11" y="0">	</tspan><tspan x="36" y="0">D</tspan><tspan x="50.44" y="0">ev</tspan><tspan x="72.25" y="0">eloped a J</tspan><tspan x="171.29" y="0">av</tspan><tspan x="193.56" y="0">a algorithm </tspan><tspan x="308.94" y="0">t</tspan><tspan x="316.03" y="0">o ensu</tspan><tspan x="380.65" y="0">r</tspan><tspan x="387.94" y="0">e the </tspan><tspan x="440.85" y="0">r</tspan><tspan x="448.12" y="0">obot will dri</tspan><tspan x="559.23" y="0">v</tspan><tspan x="569.85" y="0">e </tspan><tspan x="0" y="31">straight </tspan><tspan x="79.98" y="31">ev</tspan><tspan x="101.79" y="31">en if it</tspan><tspan x="160.6" y="31">’</tspan><tspan x="163.65" y="31">s made off-course </tspan><tspan x="344.72" y="31">b</tspan><tspan x="356.84" y="31">y external fo</tspan><tspan x="475.07" y="31">r</tspan><tspan x="482.36" y="31">ces. It is </tspan><tspan x="0" y="62">achi</tspan><tspan x="40.47" y="62">ev</tspan><tspan x="62.28" y="62">ed using an onboa</tspan><tspan x="239.74" y="62">r</tspan><tspan x="247.03" y="62">d gy</tspan><tspan x="287.64" y="62">r</tspan><tspan x="294.92" y="62">oscope. (See the video below)</tspan><tspan x="0" y="93">•</tspan><tspan class="cls-15" x="7.11" y="93">	</tspan><tspan class="cls-16" x="36" y="93">T</tspan><tspan x="47.82" y="93">aught a g</tspan><tspan x="138.48" y="93">r</tspan><tspan x="145.75" y="93">oup of 20 students basics of computer science.</tspan><tspan x="0" y="124">•</tspan><tspan class="cls-15" x="7.11" y="124">	</tspan><tspan x="36" y="124">Utili</tspan><tspan x="73.05" y="124">z</tspan><tspan x="83.64" y="124">ed J</tspan><tspan x="124.68" y="124">av</tspan><tspan x="146.95" y="124">a and A</tspan><tspan x="219.53" y="124">r</tspan><tspan x="226.81" y="124">duino </tspan><tspan x="286.14" y="124">t</tspan><tspan x="293.23" y="124">o p</tspan><tspan x="323.07" y="124">r</tspan><tspan x="330.35" y="124">ogram WPILib – based </tspan><tspan x="557.2" y="124">r</tspan><tspan x="564.47" y="124">obots. </tspan><tspan x="0" y="155">The 2016 </tspan><tspan x="96.71" y="155">r</tspan><tspan x="103.98" y="155">obot ran</tspan><tspan x="184.94" y="155">k</tspan><tspan x="195.53" y="155">ed #5 in </tspan><tspan x="278.23" y="155">N</tspan><tspan x="293.55" y="155">Y</tspan><tspan x="306.6" y="155">C Regional Competition.</tspan><tspan x="0" y="186">•</tspan><tspan class="cls-15" x="7.11" y="186">	</tspan><tspan x="36" y="186">Studied and practiced p</tspan><tspan x="264.44" y="186">r</tspan><tspan x="271.72" y="186">ogramming techniques including </tspan><tspan x="594.25" y="186">v</tspan><tspan x="604.85" y="186">ari</tspan><tspan x="629.16" y="186">-</tspan><tspan x="0" y="217">ables, functions, loops, classes and basic algorithms.</tspan><tspan x="0" y="248">•</tspan><tspan class="cls-15" x="7.11" y="248">	</tspan><tspan x="36" y="248">Filmed and p</tspan><tspan x="161.02" y="248">r</tspan><tspan x="168.29" y="248">oduced p</tspan><tspan x="257.6" y="248">r</tspan><tspan x="264.87" y="248">o</tspan><tspan x="277.12" y="248">f</tspan><tspan x="284.09" y="248">essional videos documenting the </tspan><tspan x="0" y="279">building season and the competitions, </tspan><tspan x="371.46" y="279">r</tspan><tspan x="378.75" y="279">eceiving mo</tspan><tspan x="495.16" y="279">r</tspan><tspan x="502.44" y="279">e than 20,000 </tspan><tspan x="0" y="310">views. D</tspan><tspan x="79.99" y="310">ev</tspan><tspan x="101.8" y="310">eloped maste</tspan><tspan x="232.72" y="310">r</tspan><tspan x="240.4" y="310">y of video editing softwa</tspan><tspan x="475.46" y="310">r</tspan><tspan x="482.74" y="310">e including </tspan><tspan x="0" y="341">Adobe P</tspan><tspan x="80.77" y="341">r</tspan><tspan x="88.05" y="341">emie</tspan><tspan x="135.21" y="341">r</tspan><tspan x="142.5" y="341">e P</tspan><tspan x="172.79" y="341">r</tspan><tspan x="180.06" y="341">o, Adobe After </tspan><tspan x="321.47" y="341">E</tspan><tspan x="333.95" y="341">f</tspan><tspan x="341.18" y="341">f</tspan><tspan x="348.15" y="341">ects as well as Adobe </tspan><tspan x="561.99" y="341">A</tspan><tspan x="575.61" y="341">udi</tspan><tspan x="605.1" y="341">-</tspan><tspan x="0" y="372">tion.</tspan><tspan x="0" y="403">•</tspan><tspan class="cls-15" x="7.11" y="403">	</tspan><tspan x="36" y="403">D</tspan><tspan x="50.44" y="403">ev</tspan><tspan x="72.25" y="403">eloped st</tspan><tspan x="160.51" y="403">r</tspan><tspan x="167.79" y="403">ong leadership, communication and time man</tspan><tspan x="610.57" y="403">-</tspan><tspan x="0" y="434">agement skills dealing with </tspan><tspan x="266.49" y="434">v</tspan><tspan x="277.09" y="434">arious challenges in the 6-week de</tspan><tspan x="608" y="434">-</tspan><tspan x="0" y="465">signing p</tspan><tspan x="87.8" y="465">r</tspan><tspan x="95.07" y="465">ocess.</tspan><tspan x="0" y="496">•</tspan><tspan class="cls-15" x="7.11" y="496">	</tspan><tspan x="36" y="496">Winner of the MVP </tspan><tspan x="222.01" y="496">A</tspan><tspan x="235.4" y="496">wa</tspan><tspan x="263.87" y="496">r</tspan><tspan x="271.16" y="496">d sponso</tspan><tspan x="360.15" y="496">r</tspan><tspan x="367.43" y="496">ed </tspan><tspan x="396.36" y="496">b</tspan><tspan x="408.49" y="496">y FIRS</tspan><tspan class="cls-17" x="470.94" y="496">T</tspan><tspan x="481.63" y="496">.</tspan></text><text class="cls-12" transform="translate(183.98 1542.64)">GRAPHIC DESIGNER &amp; WEB DESIGNER</text><text class="cls-13" transform="translate(183.98 1587.86)">2017-PRESEN<tspan class="cls-17" x="150.35" y="0">T</tspan><tspan x="161.97" y="0">, RENSSE</tspan><tspan x="259.3" y="0">L</tspan><tspan x="272.22" y="0">AER UNION</tspan></text><text class="cls-14" transform="translate(183.68 1627.57)">•<tspan class="cls-15" x="7.11" y="0">	</tspan><tspan x="36" y="0">Apply graphic design skills in c</tspan><tspan x="330.31" y="0">r</tspan><tspan x="337.6" y="0">eating logos, posters, b</tspan><tspan x="560.25" y="0">r</tspan><tspan x="567.52" y="0">o</tspan><tspan x="579.77" y="0">-</tspan><tspan x="0" y="31">chu</tspan><tspan x="35.89" y="31">r</tspan><tspan x="43.17" y="31">es, and other designs using Adobe Illustra</tspan><tspan x="445.21" y="31">t</tspan><tspan x="452.3" y="31">o</tspan><tspan class="cls-16" x="464.55" y="31">r</tspan><tspan x="470.71" y="31">, Adobe InDesign </tspan><tspan x="0" y="62">and Adobe Pho</tspan><tspan x="146.93" y="62">t</tspan><tspan x="154.02" y="62">oshop.</tspan><tspan x="0" y="93">•</tspan><tspan class="cls-15" x="7.11" y="93">	</tspan><tspan x="36" y="93">Maintain RPI Union </tspan><tspan x="227.09" y="93">W</tspan><tspan x="246.46" y="93">ebsites using Drupal.</tspan></text><text class="cls-12" transform="translate(1346.1 1078.64)">ELE<tspan x="38.62" y="0">C</tspan><tspan x="53.04" y="0">TRONIC </tspan><tspan x="140.17" y="0">M</tspan><tspan x="160.3" y="0">ANU</tspan><tspan x="206.43" y="0">F</tspan><tspan x="219.03" y="0">A</tspan><tspan x="233.27" y="0">C</tspan><tspan x="247.69" y="0">TURING &amp; </tspan><tspan x="161.16" y="27.6">A</tspan><tspan x="175.33" y="27.6">U</tspan><tspan x="190.76" y="27.6">T</tspan><tspan x="204.07" y="27.6">OCAD I</tspan><tspan x="275.56" y="27.6">N</tspan><tspan x="291.57" y="27.6">TERN</tspan></text><text class="cls-13" transform="translate(1298.72 1153.86)">2016, Q<tspan x="84.97" y="0">U</tspan><tspan x="101.27" y="0">AD</tspan><tspan x="135.07" y="0">L</tspan><tspan x="146.9" y="0">OGICS </tspan><tspan x="222.42" y="0">C</tspan><tspan x="236.55" y="0">ONT</tspan><tspan x="285.42" y="0">R</tspan><tspan x="300.15" y="0">OL </tspan><tspan x="335.9" y="0">C</tspan><tspan x="350.02" y="0">ORP</tspan></text><text class="cls-14" transform="translate(1058.01 1198.57)"><tspan class="cls-18">	</tspan><tspan x="305.65" y="0">•Drafted 10+ </tspan><tspan x="432.76" y="0">A</tspan><tspan x="446.38" y="0">u</tspan><tspan x="458.63" y="0">t</tspan><tspan x="465.72" y="0">oCAD schematics</tspan><tspan x="252.75" y="31">of complex electrical p</tspan><tspan x="470.07" y="31">r</tspan><tspan x="477.34" y="31">oducts </tspan><tspan x="549.33" y="31">t</tspan><tspan x="556.42" y="31">o enable</tspan><tspan x="312.31" y="62">smooth p</tspan><tspan x="404.65" y="62">r</tspan><tspan x="411.92" y="62">oduction of elect</tspan><tspan x="573.39" y="62">r</tspan><tspan x="580.66" y="62">onics.</tspan><tspan x="222.7" y="93">•</tspan><tspan x="229.81" y="93">V</tspan><tspan x="242.9" y="93">erified 200+ se</tspan><tspan x="385.61" y="93">r</tspan><tspan x="393.29" y="93">vice statuses of electrical</tspan><tspan x="205.1" y="124">p</tspan><tspan x="217.35" y="124">r</tspan><tspan x="224.62" y="124">oducts using </tspan><tspan class="cls-16" x="354.91" y="124">T</tspan><tspan x="366.88" y="124">era</tspan><tspan class="cls-16" x="397.53" y="124">T</tspan><tspan x="409.49" y="124">erm in o</tspan><tspan x="488" y="124">r</tspan><tspan x="495.28" y="124">der </tspan><tspan x="531.7" y="124">t</tspan><tspan x="538.79" y="124">o inc</tspan><tspan x="585.02" y="124">r</tspan><tspan x="592.3" y="124">ease</tspan><tspan x="271.13" y="155">the satisfactionrating of the compan</tspan><tspan class="cls-16" x="623.13" y="155">y</tspan><tspan x="632.75" y="155">.</tspan><tspan x="253.09" y="186">•Assisted with elect</tspan><tspan x="441.69" y="186">r</tspan><tspan x="448.96" y="186">onic manufacturing</tspan><tspan x="358.12" y="217">p</tspan><tspan x="370.37" y="217">r</tspan><tspan x="377.64" y="217">ocesses such as soldering.</tspan></text></svg>